<svg xmlns="http://www.w3.org/2000/svg" width="387" height="459" viewBox="0 0 387 459" fill="none">
  <path d="M70.4105 37.8394C69.9251 32.9576 67.842 29.1652 64.1613 26.4621C60.4805 23.7589 55.4852 22.4074 49.1754 22.4074C44.8879 22.4074 41.2679 23.0126 38.3152 24.2229C35.3625 25.3929 33.0974 27.0269 31.52 29.1248C29.983 31.2228 29.2144 33.6032 29.2144 36.2659C29.1335 38.4849 29.5987 40.4215 30.6099 42.0756C31.6615 43.7298 33.0974 45.162 34.9176 46.3724C36.7377 47.5424 38.841 48.5712 41.2274 49.4588C43.6138 50.306 46.162 51.0322 48.872 51.6374L60.0356 54.3002C65.4556 55.5105 70.4307 57.1243 74.9608 59.1416C79.491 61.1589 83.4144 63.6401 86.7311 66.5853C90.0478 69.5305 92.6162 73.0001 94.4364 76.9943C96.297 80.9885 97.2475 85.5676 97.2879 90.7318C97.2475 98.3167 95.306 104.893 91.4635 110.461C87.6614 115.988 82.1605 120.285 74.9608 123.351C67.8016 126.377 59.166 127.89 49.0541 127.89C39.023 127.89 30.2863 126.357 22.8439 123.29C15.442 120.224 9.65797 115.685 5.49186 109.674C1.36619 103.622 -0.797761 96.1381 -1 87.2218H24.4214C24.7045 91.3773 25.8977 94.847 28.001 97.6308C30.1447 100.374 32.9963 102.452 36.5557 103.864C40.1555 105.236 44.2205 105.922 48.7507 105.922C53.1999 105.922 57.0627 105.276 60.339 103.985C63.6557 102.694 66.2241 100.899 68.0443 98.5991C69.8644 96.2994 70.7745 93.6568 70.7745 90.6713C70.7745 87.8875 69.9453 85.5475 68.2869 83.6512C66.669 81.755 64.2826 80.1412 61.1277 78.8098C58.0132 77.4785 54.1909 76.2681 49.6608 75.1788L36.131 71.7898C25.655 69.248 17.3835 65.2741 11.3163 59.8678C5.24917 54.4616 2.23582 47.1793 2.27627 38.0209C2.23582 30.5168 4.23798 23.9607 8.28275 18.3527C12.368 12.7447 17.97 8.3673 25.0888 5.22038C32.2076 2.07346 40.2971 0.5 49.3574 0.5C58.5795 0.5 66.6286 2.07346 73.5047 5.22038C80.4213 8.3673 85.8008 12.7447 89.6433 18.3527C93.4859 23.9607 95.4678 30.4562 95.5891 37.8394H70.4105Z" fill="#FFDFB6"/>
  <path d="M76.3369 167.5H102.608V247.988C102.608 257.025 100.444 264.933 96.1158 271.711C91.8283 278.489 85.8218 283.774 78.0963 287.567C70.3708 291.319 61.3712 293.195 51.0975 293.195C40.7833 293.195 31.7635 291.319 24.0379 287.567C16.3124 283.774 10.3059 278.489 6.01849 271.711C1.73103 264.933 -0.412699 257.025 -0.412699 247.988V167.5H25.8581V245.749C25.8581 250.469 26.8895 254.665 28.9523 258.337C31.0556 262.008 34.0083 264.893 37.8104 266.991C41.6125 269.089 46.0415 270.138 51.0975 270.138C56.1939 270.138 60.6229 269.089 64.3845 266.991C68.1866 264.893 71.1191 262.008 73.1819 258.337C75.2852 254.665 76.3369 250.469 76.3369 245.749V167.5Z" fill="#FFDFB6"/>
  <path d="M-0.412699 456.745V332.805H49.338C58.4792 332.805 66.1036 334.156 72.2112 336.86C78.3188 339.563 82.9096 343.315 85.9836 348.116C89.0577 352.877 90.5947 358.363 90.5947 364.577C90.5947 369.418 89.6239 373.674 87.6824 377.346C85.7409 380.977 83.0714 383.962 79.6738 386.302C76.3166 388.602 72.4741 390.236 68.1462 391.204V392.415C72.8786 392.616 77.3076 393.948 81.4333 396.409C85.5994 398.87 88.9768 402.319 91.5654 406.757C94.1541 411.155 95.4484 416.4 95.4484 422.492C95.4484 429.068 93.8103 434.938 90.534 440.103C87.2982 445.226 82.5051 449.281 76.1548 452.267C69.8045 455.252 61.9779 456.745 52.6749 456.745H-0.412699ZM25.8581 435.322H47.2752C54.5962 435.322 59.9353 433.93 63.2925 431.146C66.6496 428.322 68.3282 424.57 68.3282 419.89C68.3282 416.46 67.499 413.434 65.8407 410.812C64.1823 408.19 61.8161 406.132 58.7421 404.639C55.7085 403.147 52.0884 402.4 47.8819 402.4H25.8581V435.322ZM25.8581 384.668H45.3337C48.9335 384.668 52.1289 384.043 54.9198 382.792C57.7511 381.501 59.9757 379.686 61.5937 377.346C63.252 375.006 64.0812 372.202 64.0812 368.934C64.0812 364.456 62.4835 360.845 59.2881 358.101C56.1332 355.358 51.6435 353.986 45.819 353.986H25.8581V384.668Z" fill="#FFDFB6"/>
  <path d="M211.75 332.805H238.021V413.293C238.021 422.331 235.857 430.238 231.529 437.016C227.241 443.794 221.235 449.079 213.509 452.872C205.784 456.624 196.784 458.5 186.51 458.5C176.196 458.5 167.176 456.624 159.451 452.872C151.725 449.079 145.719 443.794 141.431 437.016C137.144 430.238 135 422.331 135 413.293V332.805H161.271V411.054C161.271 415.775 162.302 419.97 164.365 423.642C166.469 427.313 169.421 430.198 173.223 432.296C177.025 434.394 181.454 435.443 186.51 435.443C191.607 435.443 196.036 434.394 199.797 432.296C203.6 430.198 206.532 427.313 208.595 423.642C210.698 419.97 211.75 415.775 211.75 411.054V332.805Z" fill="#FFDFB6"/>
  <path d="M326.14 456.745H282.092V332.805H326.504C339.002 332.805 349.761 335.286 358.781 340.248C367.801 345.171 374.738 352.251 379.592 361.49C384.486 370.729 386.933 381.784 386.933 394.654C386.933 407.564 384.486 418.659 379.592 427.939C374.738 437.218 367.761 444.339 358.66 449.301C349.6 454.264 338.76 456.745 326.14 456.745ZM308.363 434.293H325.048C332.814 434.293 339.346 432.921 344.645 430.178C349.984 427.394 353.988 423.097 356.658 417.287C359.368 411.437 360.723 403.893 360.723 394.654C360.723 385.496 359.368 378.011 356.658 372.202C353.988 366.392 350.004 362.116 344.705 359.372C339.407 356.629 332.874 355.257 325.108 355.257H308.363V434.293Z" fill="#FFDFB6"/>
</svg>