<svg xmlns="http://www.w3.org/2000/svg" width="387" height="459" viewBox="0 0 387 459" fill="none">
  <path d="M316.522 421.161C317.008 426.042 319.091 429.835 322.772 432.538C326.452 435.241 331.448 436.593 337.757 436.593C342.045 436.593 345.665 435.987 348.618 434.777C351.57 433.607 353.835 431.973 355.413 429.875C356.95 427.777 357.718 425.397 357.718 422.734C357.799 420.515 357.334 418.579 356.323 416.924C355.271 415.27 353.835 413.838 352.015 412.628C350.195 411.458 348.092 410.429 345.705 409.541C343.319 408.694 340.771 407.968 338.061 407.363L326.897 404.7C321.477 403.489 316.502 401.876 311.972 399.858C307.442 397.841 303.518 395.36 300.202 392.415C296.885 389.47 294.317 386 292.496 382.006C290.636 378.012 289.685 373.432 289.645 368.268C289.685 360.683 291.627 354.107 295.469 348.539C299.271 343.012 304.772 338.715 311.972 335.649C319.131 332.623 327.767 331.11 337.879 331.11C347.91 331.11 356.647 332.643 364.089 335.71C371.491 338.776 377.275 343.315 381.441 349.326C385.567 355.378 387.731 362.862 387.933 371.778H362.511C362.228 367.623 361.035 364.153 358.932 361.369C356.788 358.626 353.937 356.548 350.377 355.136C346.777 353.764 342.712 353.078 338.182 353.078C333.733 353.078 329.87 353.724 326.594 355.015C323.277 356.306 320.709 358.101 318.889 360.401C317.068 362.701 316.158 365.343 316.158 368.329C316.158 371.113 316.988 373.453 318.646 375.349C320.264 377.245 322.65 378.859 325.805 380.19C328.92 381.522 332.742 382.732 337.272 383.821L350.802 387.21C361.278 389.752 369.549 393.726 375.617 399.132C381.684 404.538 384.697 411.821 384.657 420.979C384.697 428.483 382.695 435.039 378.65 440.647C374.565 446.255 368.963 450.633 361.844 453.78C354.725 456.927 346.636 458.5 337.575 458.5C328.353 458.5 320.304 456.927 313.428 453.78C306.512 450.633 301.132 446.255 297.29 440.647C293.447 435.039 291.465 428.544 291.344 421.161H316.522Z" fill="#FFDFB6"/>
  <path d="M310.596 291.5H284.325V211.012C284.325 201.975 286.489 194.067 290.817 187.289C295.105 180.511 301.111 175.226 308.837 171.433C316.562 167.681 325.562 165.805 335.835 165.805C346.15 165.805 355.169 167.681 362.895 171.433C370.62 175.226 376.627 180.511 380.914 187.289C385.202 194.067 387.346 201.975 387.346 211.012V291.5H361.075V213.251C361.075 208.531 360.043 204.335 357.981 200.663C355.877 196.992 352.925 194.107 349.122 192.009C345.32 189.911 340.891 188.862 335.835 188.862C330.739 188.862 326.31 189.911 322.548 192.009C318.746 194.107 315.814 196.992 313.751 200.663C311.648 204.335 310.596 208.531 310.596 213.251V291.5Z" fill="#FFDFB6"/>
  <path d="M387.346 2.25504V126.195H337.595C328.454 126.195 320.829 124.844 314.722 122.14C308.614 119.437 304.023 115.685 300.949 110.884C297.875 106.123 296.338 100.637 296.338 94.4234C296.338 89.582 297.309 85.3256 299.25 81.6542C301.192 78.0231 303.861 75.0376 307.259 72.6976C310.616 70.3979 314.459 68.7639 318.787 67.7957V66.5853C314.054 66.3836 309.625 65.0522 305.5 62.5911C301.333 60.1301 297.956 56.6806 295.367 52.2426C292.779 47.845 291.484 42.6001 291.484 36.508C291.484 29.9318 293.123 24.0616 296.399 18.8974C299.635 13.7736 304.428 9.7189 310.778 6.73337C317.128 3.74783 324.955 2.25504 334.258 2.25504H387.346ZM361.075 23.6783H339.658C332.337 23.6783 326.998 25.0702 323.64 27.854C320.283 30.6781 318.605 34.4303 318.605 39.1103C318.605 42.5396 319.434 45.5655 321.092 48.1879C322.751 50.8104 325.117 52.868 328.191 54.3607C331.224 55.8535 334.844 56.5999 339.051 56.5999H361.075V23.6783ZM361.075 74.3315H341.599C337.999 74.3315 334.804 74.9569 332.013 76.2076C329.182 77.4986 326.957 79.3142 325.339 81.6542C323.681 83.9942 322.852 86.7982 322.852 90.0661C322.852 94.5444 324.449 98.1553 327.645 100.899C330.8 103.642 335.289 105.014 341.114 105.014H361.075V74.3315Z" fill="#FFDFB6"/>
  <path d="M175.183 126.195H148.912V45.7067C148.912 36.6694 151.076 28.7617 155.404 21.9838C159.692 15.2058 165.698 9.92062 173.424 6.12817C181.149 2.37607 190.149 0.5 200.423 0.5C210.737 0.5 219.757 2.37607 227.482 6.12817C235.208 9.92062 241.214 15.2058 245.501 21.9838C249.789 28.7617 251.933 36.6694 251.933 45.7067V126.195H225.662V47.9459C225.662 43.2255 224.63 39.0296 222.568 35.3582C220.464 31.6868 217.512 28.8021 213.71 26.7042C209.907 24.6062 205.478 23.5573 200.423 23.5573C195.326 23.5573 190.897 24.6062 187.135 26.7042C183.333 28.8021 180.401 31.6868 178.338 35.3582C176.235 39.0296 175.183 43.2255 175.183 47.9459V126.195Z" fill="#FFDFB6"/>
  <path d="M60.7929 2.25504H104.841V126.195H60.4289C47.9305 126.195 37.1714 123.714 28.1516 118.752C19.1318 113.829 12.195 106.749 7.34131 97.5098C2.44711 88.2708 3.05176e-05 77.2162 3.05176e-05 64.3461C3.05176e-05 51.4357 2.44711 40.3408 7.34131 31.0614C12.195 21.782 19.1722 14.6611 28.273 9.6987C37.3333 4.73624 48.1732 2.25504 60.7929 2.25504ZM78.5697 24.7071H61.885C54.119 24.7071 47.5868 26.0788 42.2881 28.8223C36.949 31.6061 32.9447 35.9028 30.2751 41.7125C27.5652 47.5626 26.2102 55.1071 26.2102 64.3461C26.2102 73.5045 27.5652 80.9885 30.2751 86.7982C32.9447 92.6079 36.9288 96.8845 42.2274 99.6279C47.5261 102.371 54.0584 103.743 61.8244 103.743H78.5697V24.7071Z" fill="#FFDFB6"/>
</svg>