<svg width="24" height="24" viewBox="0 0 24 24" fill="none" xmlns="http://www.w3.org/2000/svg">
<path id="Bell" d="M9.25098 18.7448H2C2.69723 17.7878 3.82338 16.1079 4.45579 14.8386C5.16728 13.4105 5.4076 12.4856 5.4076 11.0501C5.4076 9.9017 5.4076 9.37534 5.4076 8.89684C5.4076 4.96086 6.82766 1 12.1176 1C17.4075 1 18.655 4.91173 18.655 8.89684C18.655 11.7679 18.8002 13.4076 19.5061 14.8386C20.1323 16.1079 21.3028 17.7878 22 18.7448H15.2659M9.25098 18.7448C9.01857 19.9411 9.53479 23 12.3237 23C15.1126 23 15.4983 19.9411 15.2659 18.7448M9.25098 18.7448H15.2659" stroke="white" stroke-width="1.6" stroke-linecap="round"/>
</svg>
