<svg width="11" height="10" viewBox="0 0 11 10" fill="none" xmlns="http://www.w3.org/2000/svg">
<path id="Union" fill-rule="evenodd" clip-rule="evenodd" d="M1.35429 0.146447C1.15902 -0.0488155 0.842441 -0.0488155 0.647179 0.146447C0.451917 0.341709 0.451917 0.658291 0.647179 0.853553L4.79305 4.99943L0.647179 9.1453C0.451917 9.34057 0.451917 9.65715 0.647179 9.85241C0.842441 10.0477 1.15902 10.0477 1.35429 9.85241L5.50016 5.70654L9.64583 9.8522C9.84109 10.0475 10.1577 10.0475 10.3529 9.8522C10.5482 9.65694 10.5482 9.34035 10.3529 9.14509L6.20727 4.99943L10.3529 0.853765C10.5482 0.658503 10.5482 0.34192 10.3529 0.146658C10.1577 -0.0486039 9.84109 -0.0486037 9.64583 0.146658L5.50016 4.29232L1.35429 0.146447Z" fill="black"/>
</svg>
