<svg width="16" height="16" viewBox="0 0 16 16" fill="none" xmlns="http://www.w3.org/2000/svg">
<path id="Search-Big" fill-rule="evenodd" clip-rule="evenodd" d="M12.5632 7.09799C12.5632 10.1379 10.1055 12.596 7.08159 12.596C4.05768 12.596 1.6 10.1379 1.6 7.09799C1.6 4.05804 4.05768 1.6 7.08159 1.6C10.1055 1.6 12.5632 4.05804 12.5632 7.09799ZM11.5123 12.6354C10.2992 13.6118 8.75847 14.196 7.08159 14.196C3.17054 14.196 0 11.0181 0 7.09799C0 3.17788 3.17054 0 7.08159 0C10.9926 0 14.1632 3.17788 14.1632 7.09799C14.1632 8.76021 13.5931 10.289 12.6383 11.4986L15.7651 14.6327C16.0772 14.9455 16.0772 15.4526 15.7651 15.7654C15.4531 16.0782 14.9471 16.0782 14.6351 15.7654L11.5123 12.6354Z" fill="#070707"/>
</svg>
